<?xml version="1.0" encoding="UTF-8" standalone="no"?>
<!-- Created with Inkscape (http://www.inkscape.org/) -->

<svg
   xmlns:dc="http://purl.org/dc/elements/1.1/"
   xmlns:cc="http://creativecommons.org/ns#"
   xmlns:rdf="http://www.w3.org/1999/02/22-rdf-syntax-ns#"
   xmlns:svg="http://www.w3.org/2000/svg"
   xmlns="http://www.w3.org/2000/svg"
   xmlns:xlink="http://www.w3.org/1999/xlink"
   xmlns:sodipodi="http://sodipodi.sourceforge.net/DTD/sodipodi-0.dtd"
   xmlns:inkscape="http://www.inkscape.org/namespaces/inkscape"
   width="50"
   height="60"
   id="svg8806"
   version="1.1"
   inkscape:version="0.48.5 r10040"
   sodipodi:docname="diamond-shine.svg">
  <defs
     id="defs8808">
    <linearGradient
       inkscape:collect="always"
       xlink:href="#linearGradient8650"
       id="linearGradient8794"
       gradientUnits="userSpaceOnUse"
       x1="4951.4678"
       y1="9276.2744"
       x2="4966.9404"
       y2="9268.3193" />
    <linearGradient
       inkscape:collect="always"
       id="linearGradient8650">
      <stop
         style="stop-color:#9dca5e;stop-opacity:1;"
         offset="0"
         id="stop8652" />
      <stop
         style="stop-color:#9dca5e;stop-opacity:0;"
         offset="1"
         id="stop8654" />
    </linearGradient>
    <linearGradient
       inkscape:collect="always"
       xlink:href="#linearGradient8658"
       id="linearGradient8796"
       gradientUnits="userSpaceOnUse"
       x1="4933.1558"
       y1="9284.2178"
       x2="4954.6567"
       y2="9272.1973" />
    <linearGradient
       inkscape:collect="always"
       id="linearGradient8658">
      <stop
         style="stop-color:#95c652;stop-opacity:1;"
         offset="0"
         id="stop8660" />
      <stop
         style="stop-color:#95c652;stop-opacity:0;"
         offset="1"
         id="stop8662" />
    </linearGradient>
    <linearGradient
       inkscape:collect="always"
       xlink:href="#linearGradient8688"
       id="linearGradient8798"
       gradientUnits="userSpaceOnUse"
       x1="4901.2451"
       y1="9261.1689"
       x2="5016.459"
       y2="9261.4189" />
    <linearGradient
       inkscape:collect="always"
       id="linearGradient8688">
      <stop
         style="stop-color:#b9da90;stop-opacity:1;"
         offset="0"
         id="stop8690" />
      <stop
         style="stop-color:#b9da90;stop-opacity:0;"
         offset="1"
         id="stop8692" />
    </linearGradient>
    <linearGradient
       inkscape:collect="always"
       xlink:href="#linearGradient8642"
       id="linearGradient8800"
       gradientUnits="userSpaceOnUse"
       x1="4890.9292"
       y1="9308.7168"
       x2="4941.0142"
       y2="9271.0635" />
    <linearGradient
       inkscape:collect="always"
       id="linearGradient8642">
      <stop
         style="stop-color:#8ec245;stop-opacity:1;"
         offset="0"
         id="stop8644" />
      <stop
         style="stop-color:#8ec245;stop-opacity:0;"
         offset="1"
         id="stop8646" />
    </linearGradient>
    <linearGradient
       inkscape:collect="always"
       xlink:href="#linearGradient8666"
       id="linearGradient8802"
       gradientUnits="userSpaceOnUse"
       x1="4890.9292"
       y1="9283.2207"
       x2="4933.1558"
       y2="9284.2178" />
    <linearGradient
       inkscape:collect="always"
       id="linearGradient8666">
      <stop
         style="stop-color:#7fb13a;stop-opacity:1;"
         offset="0"
         id="stop8668" />
      <stop
         style="stop-color:#7fb13a;stop-opacity:0;"
         offset="1"
         id="stop8670" />
    </linearGradient>
    <linearGradient
       inkscape:collect="always"
       xlink:href="#linearGradient8674"
       id="linearGradient8804"
       gradientUnits="userSpaceOnUse"
       x1="4885.6045"
       y1="9275.2812"
       x2="4903.3936"
       y2="9271.0391" />
    <linearGradient
       inkscape:collect="always"
       id="linearGradient8674">
      <stop
         style="stop-color:#6f9b32;stop-opacity:1;"
         offset="0"
         id="stop8676" />
      <stop
         style="stop-color:#6f9b32;stop-opacity:0;"
         offset="1"
         id="stop8678" />
    </linearGradient>
  </defs>
  <sodipodi:namedview
     id="base"
     pagecolor="#ffffff"
     bordercolor="#666666"
     borderopacity="1.0"
     inkscape:pageopacity="0.0"
     inkscape:pageshadow="2"
     inkscape:zoom="3.959798"
     inkscape:cx="-17.181233"
     inkscape:cy="-6.0008882"
     inkscape:document-units="px"
     inkscape:current-layer="layer1"
     showgrid="false"
     inkscape:window-width="1920"
     inkscape:window-height="1128"
     inkscape:window-x="0"
     inkscape:window-y="25"
     inkscape:window-maximized="1" />
  <metadata
     id="metadata8811">
    <rdf:RDF>
      <cc:Work
         rdf:about="">
        <dc:format>image/svg+xml</dc:format>
        <dc:type
           rdf:resource="http://purl.org/dc/dcmitype/StillImage" />
        <dc:title></dc:title>
      </cc:Work>
    </rdf:RDF>
  </metadata>
  <g
     inkscape:label="Layer 1"
     inkscape:groupmode="layer"
     id="layer1"
     transform="translate(0,-992.36218)">
    <g
       transform="matrix(0.57313684,0,0,0.57313684,-5587.4111,-5348.7605)"
       id="g8750"
       inkscape:export-filename="/home/thran/webs/matmat/static/graphics/wizard/diamond-shine.png"
       inkscape:export-xdpi="50"
       inkscape:export-ydpi="50">
      <polygon
         style="fill:url(#linearGradient8794);fill-opacity:1"
         points="4965.461,9272.402 4965.88,9275.552 4965.183,9278.9 4963.767,9281.721 4961.555,9284.402 4958.664,9287.023 4958.584,9287.094 4955.894,9288.608 4955.793,9288.438 4951.468,9263.94 4951.488,9263.94 4963.658,9268.106 4963.667,9268.097 4964.664,9270 "
         id="polygon8752"
         transform="translate(4869.6371,1836.456)" />
      <polygon
         style="fill:#73bf44"
         points="4949.215,9257.382 4949.245,9257.342 4963.578,9267.927 4963.667,9268.097 4963.658,9268.106 4951.488,9263.94 4951.468,9263.94 4950.82,9260.252 4950.79,9260.252 4950.771,9260.023 "
         id="polygon8754"
         transform="translate(4869.6371,1836.456)" />
      <polygon
         style="fill:#73bf44"
         points="4958.584,9287.094 4958.664,9287.023 4958.684,9287.044 4928.993,9331.038 4942.707,9294.07 4942.697,9294.021 4943.006,9293.961 4948.278,9292.077 4955.246,9288.978 4955.894,9288.608 "
         id="polygon8756"
         transform="translate(4869.6371,1836.456)" />
      <polygon
         style="fill:url(#linearGradient8796);fill-opacity:1"
         points="4934.713,9295.655 4928.365,9296.313 4925.554,9296.272 4925.554,9296.253 4937.544,9270.708 4955.793,9288.438 4955.894,9288.608 4955.246,9288.978 4948.278,9292.077 4943.006,9293.961 4942.697,9294.021 "
         id="polygon8758"
         transform="translate(4869.6371,1836.456)" />
      <polygon
         style="fill:#73bf44"
         points="4950.79,9260.252 4950.82,9260.252 4951.468,9263.94 4955.793,9288.438 4937.544,9270.708 4937.524,9270.647 4942.518,9269.372 4947.132,9267.05 4950.521,9263.531 4950.959,9262.026 "
         id="polygon8760"
         transform="translate(4869.6371,1836.456)" />
      <polygon
         style="fill:url(#linearGradient8798);fill-opacity:1"
         points="4949.136,9257.263 4949.245,9257.342 4949.215,9257.382 4950.771,9260.023 4950.79,9260.252 4950.959,9262.026 4950.521,9263.531 4947.132,9267.05 4942.518,9269.372 4937.524,9270.647 4937.494,9270.658 4929.491,9271.564 4922.743,9271.445 4914.301,9270.249 4913.902,9270.109 4909.557,9268.625 4903.348,9264.977 4901.304,9261.647 4901.245,9259.924 4901.673,9258.349 4901.683,9258.349 4901.683,9258.329 4902.51,9256.804 4902.49,9256.773 4905.64,9254.73 4909.338,9252.956 4913.733,9251.73 4920.072,9250.863 4927.448,9250.773 4934.105,9251.282 4939.398,9252.578 4944.979,9254.721 "
         id="polygon8762"
         transform="translate(4869.6371,1836.456)" />
      <polygon
         style="fill:#b9da90"
         points="4925.554,9296.362 4925.554,9296.272 4928.365,9296.313 4934.713,9295.655 4942.697,9294.021 4942.707,9294.07 4928.993,9331.038 4928.982,9330.918 "
         id="polygon8764"
         transform="translate(4869.6371,1836.456)" />
      <polygon
         style="fill:#b9da90"
         points="4937.544,9270.708 4925.554,9296.253 4913.883,9270.169 4913.902,9270.109 4914.301,9270.249 4922.743,9271.445 4929.491,9271.564 4937.494,9270.658 4937.524,9270.647 "
         id="polygon8766"
         transform="translate(4869.6371,1836.456)" />
      <polygon
         style="fill:url(#linearGradient8800);fill-opacity:1"
         points="4908.002,9294.509 4928.962,9330.918 4928.982,9330.918 4928.993,9331.038 4890.929,9286.445 4890.969,9286.396 4892.862,9288.13 4896.909,9290.193 4902.092,9292.455 4908.022,9294.449 "
         id="polygon8768"
         transform="translate(4869.6371,1836.456)" />
      <polygon
         style="fill:#d6e9bd"
         points="4928.982,9330.918 4928.962,9330.918 4908.002,9294.509 4908.022,9294.449 4908.261,9294.528 4915.039,9295.845 4922.245,9296.223 4925.554,9296.272 4925.554,9296.362 "
         id="polygon8770"
         transform="translate(4869.6371,1836.456)" />
      <polygon
         style="fill:url(#linearGradient8802);fill-opacity:1"
         points="4922.245,9296.223 4915.039,9295.845 4908.261,9294.528 4908.022,9294.449 4902.092,9292.455 4896.909,9290.193 4892.862,9288.13 4890.969,9286.396 4890.929,9286.365 4891.108,9286.166 4913.883,9270.169 4925.554,9296.253 4925.554,9296.272 "
         id="polygon8772"
         transform="translate(4869.6371,1836.456)" />
      <polygon
         style="fill:#d6e9bd"
         points="4913.883,9270.169 4891.108,9286.166 4901.653,9258.339 4901.673,9258.349 4901.245,9259.924 4901.304,9261.647 4903.348,9264.977 4909.557,9268.625 4913.902,9270.109 "
         id="polygon8774"
         transform="translate(4869.6371,1836.456)" />
      <polygon
         style="fill:url(#linearGradient8804);fill-opacity:1"
         points="4887.62,9269.811 4902.311,9256.884 4902.49,9256.773 4902.51,9256.804 4901.683,9258.329 4901.683,9258.349 4901.673,9258.349 4901.653,9258.339 4891.108,9286.166 4890.929,9286.365 4890.181,9285.678 4888.297,9282.618 4886.693,9279.04 4886.135,9275.512 4886.743,9272.213 "
         id="polygon8776"
         transform="translate(4869.6371,1836.456)" />
      <polygon
         style="fill:none;stroke:#ffffff;stroke-miterlimit:10"
         stroke-miterlimit="10"
         points="4958.584,9287.094 4955.894,9288.608 4955.246,9288.978 4948.278,9292.077 4943.006,9293.961 4942.697,9294.021 4934.713,9295.655 4928.365,9296.313 4925.554,9296.272 4922.245,9296.223 4915.039,9295.845 4908.261,9294.528 4908.022,9294.449 4902.092,9292.455 4896.909,9290.193 4892.862,9288.13 4890.969,9286.396 4890.929,9286.365 4890.181,9285.678 4888.297,9282.618 4886.693,9279.04 4886.135,9275.512 4886.743,9272.213 4887.62,9269.811 4902.311,9256.884 4902.49,9256.773 4905.64,9254.73 4909.338,9252.956 4913.733,9251.73 4920.072,9250.863 4927.448,9250.773 4934.105,9251.282 4939.398,9252.578 4944.979,9254.721 4949.136,9257.263 4949.245,9257.342 4963.578,9267.927 4963.667,9268.097 4964.664,9270 4965.461,9272.402 4965.88,9275.552 4965.183,9278.9 4963.767,9281.721 4961.555,9284.402 4958.664,9287.023 "
         id="polygon8778"
         transform="translate(4869.6371,1836.456)" />
      <polyline
         style="fill:none;stroke:#ffffff;stroke-miterlimit:10"
         stroke-miterlimit="10"
         points="4902.51,9256.804 4901.683,9258.329 4901.683,9258.349       4901.673,9258.349 4901.245,9259.924 4901.304,9261.647 4903.348,9264.977 4909.557,9268.625 4913.902,9270.109       4914.301,9270.249 4922.743,9271.445 4929.491,9271.564 4937.494,9270.658 4937.524,9270.647 4942.518,9269.372       4947.132,9267.05 4950.521,9263.531 4950.959,9262.026 4950.79,9260.252 4950.771,9260.023 4949.215,9257.382     "
         id="polyline8780"
         transform="translate(4869.6371,1836.456)" />
      <polyline
         style="fill:none;stroke:#ffffff;stroke-miterlimit:10"
         stroke-miterlimit="10"
         points="4901.653,9258.339 4891.108,9286.166 4913.883,9270.169       4925.554,9296.253 4937.544,9270.708 4955.793,9288.438 4951.468,9263.94 4950.82,9260.252     "
         id="polyline8782"
         transform="translate(4869.6371,1836.456)" />
      <polyline
         style="fill:none;stroke:#ffffff;stroke-miterlimit:10"
         stroke-miterlimit="10"
         points="4890.929,9286.445 4928.993,9331.038 4958.684,9287.044           "
         id="polyline8784"
         transform="translate(4869.6371,1836.456)" />
      <polyline
         style="fill:none;stroke:#ffffff;stroke-miterlimit:10"
         stroke-miterlimit="10"
         points="4928.993,9331.038 4928.982,9330.918 4925.554,9296.362           "
         id="polyline8786"
         transform="translate(4869.6371,1836.456)" />
      <line
         style="fill:none;stroke:#ffffff;stroke-miterlimit:10"
         stroke-miterlimit="10"
         x1="9798.5986"
         y1="11167.374"
         x2="9777.6387"
         y2="11130.965"
         id="line8788" />
      <line
         style="fill:none;stroke:#ffffff;stroke-miterlimit:10"
         stroke-miterlimit="10"
         x1="9798.6299"
         y1="11167.494"
         x2="9812.3438"
         y2="11130.526"
         id="line8790" />
      <line
         style="fill:none;stroke:#ffffff;stroke-miterlimit:10"
         stroke-miterlimit="10"
         x1="9821.125"
         y1="11100.396"
         x2="9833.2949"
         y2="11104.562"
         id="line8792" />
    </g>
  </g>
</svg>
